<svg xmlns="http://www.w3.org/2000/svg" xmlns:xlink="http://www.w3.org/1999/xlink" width="500" zoomAndPan="magnify" viewBox="0 0 375 374.999991" height="500" preserveAspectRatio="xMidYMid meet" version="1.0"><defs><g/><clipPath id="34034fb98e"><rect x="0" width="307" y="0" height="297"/></clipPath></defs><g transform="matrix(1, 0, 0, 1, 34, 39)"><g clip-path="url(#34034fb98e)"><g fill="#22bdb3" fill-opacity="0.6"><g transform="translate(5.54428, 243.477412)"><g><path d="M 20.15625 -169.984375 L 97.375 -169.984375 C 115.832031 -169.984375 132.140625 -166.460938 146.296875 -159.421875 C 160.460938 -152.378906 171.472656 -142.460938 179.328125 -129.671875 C 187.179688 -116.878906 191.109375 -101.984375 191.109375 -84.984375 C 191.109375 -67.992188 187.179688 -53.101562 179.328125 -40.3125 C 171.472656 -27.519531 160.460938 -17.601562 146.296875 -10.5625 C 132.140625 -3.519531 115.832031 0 97.375 0 L 20.15625 0 Z M 95.4375 -32.296875 C 112.425781 -32.296875 125.976562 -37.03125 136.09375 -46.5 C 146.21875 -55.96875 151.28125 -68.796875 151.28125 -84.984375 C 151.28125 -101.171875 146.21875 -114 136.09375 -123.46875 C 125.976562 -132.945312 112.425781 -137.6875 95.4375 -137.6875 L 59.5 -137.6875 L 59.5 -32.296875 Z M 95.4375 -32.296875 "/></g></g></g><g fill="#22bdb3" fill-opacity="0.6"><g transform="translate(206.121587, 243.477412)"><g><path d="M 66.296875 -139.875 C 76.003906 -138.414062 83.445312 -135.09375 88.625 -129.90625 C 93.8125 -124.726562 96.40625 -118.253906 96.40625 -110.484375 C 96.40625 -104.660156 94.664062 -99.238281 91.1875 -94.21875 C 87.707031 -89.195312 82.40625 -85.148438 75.28125 -82.078125 C 68.15625 -79.003906 59.410156 -77.46875 49.046875 -77.46875 C 40.304688 -77.46875 31.847656 -78.519531 23.671875 -80.625 C 15.492188 -82.726562 9.0625 -85.476562 4.375 -88.875 L 14.078125 -108.296875 C 18.617188 -105.222656 23.960938 -102.835938 30.109375 -101.140625 C 36.265625 -99.441406 42.414062 -98.59375 48.5625 -98.59375 C 55.519531 -98.59375 60.738281 -99.644531 64.21875 -101.75 C 67.707031 -103.851562 69.453125 -106.765625 69.453125 -110.484375 C 69.453125 -118.097656 63.054688 -121.90625 50.265625 -121.90625 L 35.9375 -121.90625 L 35.9375 -138.40625 L 58.03125 -160.03125 L 8.734375 -160.03125 L 8.734375 -180.1875 L 90.8125 -180.1875 L 90.8125 -163.90625 Z M 66.296875 -139.875 "/></g></g></g><g fill="#3d3b3a" fill-opacity="1"><g transform="translate(0.99117, 235.591197)"><g><path d="M 20.15625 -169.984375 L 97.375 -169.984375 C 115.832031 -169.984375 132.140625 -166.460938 146.296875 -159.421875 C 160.460938 -152.378906 171.472656 -142.460938 179.328125 -129.671875 C 187.179688 -116.878906 191.109375 -101.984375 191.109375 -84.984375 C 191.109375 -67.992188 187.179688 -53.101562 179.328125 -40.3125 C 171.472656 -27.519531 160.460938 -17.601562 146.296875 -10.5625 C 132.140625 -3.519531 115.832031 0 97.375 0 L 20.15625 0 Z M 95.4375 -32.296875 C 112.425781 -32.296875 125.976562 -37.03125 136.09375 -46.5 C 146.21875 -55.96875 151.28125 -68.796875 151.28125 -84.984375 C 151.28125 -101.171875 146.21875 -114 136.09375 -123.46875 C 125.976562 -132.945312 112.425781 -137.6875 95.4375 -137.6875 L 59.5 -137.6875 L 59.5 -32.296875 Z M 95.4375 -32.296875 "/></g></g></g><g fill="#3d3b3a" fill-opacity="1"><g transform="translate(201.568477, 235.591197)"><g><path d="M 66.296875 -139.875 C 76.003906 -138.414062 83.445312 -135.09375 88.625 -129.90625 C 93.8125 -124.726562 96.40625 -118.253906 96.40625 -110.484375 C 96.40625 -104.660156 94.664062 -99.238281 91.1875 -94.21875 C 87.707031 -89.195312 82.40625 -85.148438 75.28125 -82.078125 C 68.15625 -79.003906 59.410156 -77.46875 49.046875 -77.46875 C 40.304688 -77.46875 31.847656 -78.519531 23.671875 -80.625 C 15.492188 -82.726562 9.0625 -85.476562 4.375 -88.875 L 14.078125 -108.296875 C 18.617188 -105.222656 23.960938 -102.835938 30.109375 -101.140625 C 36.265625 -99.441406 42.414062 -98.59375 48.5625 -98.59375 C 55.519531 -98.59375 60.738281 -99.644531 64.21875 -101.75 C 67.707031 -103.851562 69.453125 -106.765625 69.453125 -110.484375 C 69.453125 -118.097656 63.054688 -121.90625 50.265625 -121.90625 L 35.9375 -121.90625 L 35.9375 -138.40625 L 58.03125 -160.03125 L 8.734375 -160.03125 L 8.734375 -180.1875 L 90.8125 -180.1875 L 90.8125 -163.90625 Z M 66.296875 -139.875 "/></g></g></g></g></g></svg>